<?xml version="1.0" standalone="no"?>
<!DOCTYPE svg PUBLIC "-//W3C//DTD SVG 20010904//EN"
 "http://www.w3.org/TR/2001/REC-SVG-20010904/DTD/svg10.dtd">
<svg version="1.0" xmlns="http://www.w3.org/2000/svg"
 width="557.000000pt" height="448.000000pt" viewBox="0 0 557.000000 448.000000"
 preserveAspectRatio="xMidYMid meet">

<g transform="translate(0.000000,448.000000) scale(0.100000,-0.100000)"
fill="#000000" stroke="none">
<path d="M2378 3473 c-8 -10 -57 -92 -108 -183 -51 -91 -140 -245 -197 -343
-56 -98 -103 -185 -103 -194 0 -14 116 -219 340 -598 l76 -130 388 -3 c287 -2
392 1 403 10 16 13 243 396 401 676 l25 44 -23 41 c-73 131 -385 665 -398 680
-14 16 -46 17 -402 17 -356 0 -388 -1 -402 -17z m411 -182 c22 -38 41 -72 41
-75 0 -3 -65 -6 -144 -6 l-145 0 -131 -230 -131 -229 133 -228 134 -228 142
-3 c78 -1 142 -5 142 -8 0 -3 -17 -34 -37 -69 l-38 -64 -135 -3 c-74 -2 -142
-2 -150 0 -8 2 -93 138 -189 303 l-173 300 173 304 174 305 146 0 147 0 41
-69z m434 -126 c60 -104 137 -240 172 -302 l63 -112 -175 -300 -175 -301 -84
0 c-78 0 -84 1 -75 18 5 9 50 87 100 172 l90 155 -238 3 -237 2 -42 73 -42 72
325 3 325 2 29 52 30 51 -29 51 -30 51 -324 5 -325 5 42 72 41 73 237 2 237 3
-75 130 c-41 72 -86 149 -99 173 l-25 43 87 -3 88 -3 109 -190z"/>
</g>
</svg>
